# Blender 4.4.3
# www.blender.org
mtllib Ship Base.mtl
o Cylinder
v 0.000000 19.921530 3.584741
v 0.000000 17.921530 3.584740
v 1.792370 19.921530 3.104477
v 1.792370 17.921530 3.104476
v 3.104476 19.921530 1.792370
v 3.104476 17.921530 1.792370
v 3.584740 19.921530 0.000000
v 3.584740 17.921530 0.000000
v 3.104476 19.921530 -1.792370
v 3.104476 17.921530 -1.792370
v 1.792370 19.921530 -3.104476
v 1.792370 17.921530 -3.104477
v 0.000000 19.921530 -3.584740
v 0.000000 17.921530 -3.584741
v -1.792370 19.921530 -3.104476
v -1.792370 17.921530 -3.104477
v -3.104476 19.921530 -1.792370
v -3.104476 17.921530 -1.792370
v -3.584740 19.921530 0.000000
v -3.584740 17.921530 0.000000
v -3.104476 19.921530 1.792370
v -3.104476 17.921530 1.792370
v -1.792370 19.921530 3.104477
v -1.792370 17.921530 3.104476
v 0.000000 20.240555 2.751872
v 1.375936 20.240555 2.383191
v 2.383191 20.240555 1.375936
v 2.751871 20.240555 0.000000
v 2.383191 20.240555 -1.375936
v 1.375936 20.240555 -2.383191
v 0.000000 20.240555 -2.751871
v -1.375936 20.240555 -2.383191
v -2.383191 20.240555 -1.375936
v -2.751871 20.240555 0.000000
v -2.383191 20.240555 1.375936
v -1.375936 20.240555 2.383191
v 0.000000 20.934214 3.236780
v 1.618390 20.934214 2.803134
v 2.803134 20.934214 1.618390
v 3.236780 20.934214 0.000000
v 2.803134 20.934214 -1.618390
v 1.618390 20.934214 -2.803134
v 0.000000 20.934214 -3.236780
v -1.618390 20.934214 -2.803134
v -2.803134 20.934214 -1.618390
v -3.236780 20.934214 0.000000
v -2.803134 20.934214 1.618390
v -1.618390 20.934214 2.803134
v -0.000000 19.057375 1.710227
v 0.855113 19.057375 1.481100
v 1.481100 19.057375 0.855114
v 1.710227 19.057375 0.000000
v 1.481100 19.057375 -0.855113
v 0.855113 19.057375 -1.481099
v -0.000000 19.057375 -1.710226
v -0.855113 19.057375 -1.481099
v -1.481100 19.057375 -0.855113
v -1.710227 19.057375 0.000000
v -1.481100 19.057375 0.855114
v -0.855113 19.057375 1.481100
v 6.325613 2.375297 0.000000
v 8.962366 2.375297 0.000000
v 17.251598 19.084969 0.000000
v 14.474706 6.613148 0.000000
v 0.000000 20.056938 8.049711
v -6.325613 2.375297 0.000000
v -8.962366 2.375297 0.000000
v -17.251598 19.084969 0.000000
v -14.474706 6.613148 0.000000
v -0.089021 2.375297 -3.222451
v 0.089021 2.375297 -3.222451
v -0.089015 2.375297 3.222454
v 0.089015 2.375297 3.222454
v 0.000000 2.471830 3.294551
v 0.000000 2.474280 3.282669
v 0.000000 19.028635 5.032429
v 0.000000 19.084969 5.228329
v 0.000000 19.084969 -5.228329
v 0.000000 19.028635 -5.032429
v 12.802525 19.014385 0.075302
v 12.864347 19.084969 0.234562
v 12.864347 19.084969 -0.234563
v 12.802525 19.014385 -0.075303
v 0.087703 -11.461735 -1.691820
v -0.087703 -11.461735 -1.691820
v 3.057179 -11.461735 0.049844
v 3.057179 -11.461735 -0.049844
v 3.169706 -11.364273 0.000000
v 3.186063 -11.369545 0.000000
v -0.087699 -11.461735 1.691823
v 0.087699 -11.461735 1.691823
v 0.000000 19.084969 5.561852
v 0.144903 19.055470 5.711133
v 14.717906 19.035753 0.063100
v 14.327784 19.084969 0.000000
v 0.093336 18.985853 -5.618651
v -0.093336 18.985853 -5.618651
v 0.000000 19.084969 -5.561852
v 0.000000 18.129875 3.512654
v 0.000000 18.185650 3.706132
v 0.000000 18.185650 -3.706132
v 0.000000 18.129875 -3.512654
v 10.542334 18.204195 0.071123
v 10.542334 18.204195 -0.071123
v 10.235391 18.129875 0.000000
v -0.087701 -21.886364 0.049844
v -0.087706 -21.886349 -0.049844
v 0.087706 -21.886349 -0.049844
v 0.087701 -21.886364 0.049844
v -12.802525 19.014385 0.075303
v -12.802525 19.014385 -0.075302
v -12.864347 19.084969 -0.234562
v -12.864347 19.084969 0.234563
v -3.057179 -11.461735 -0.049844
v -3.057179 -11.461735 0.049844
v -3.186063 -11.369545 0.000000
v -3.169706 -11.364273 0.000000
v -14.327784 19.084969 0.000000
v -14.717906 19.035753 0.063100
v -10.542334 18.204195 0.071123
v -10.235391 18.129875 -0.000000
v -10.542334 18.204195 -0.071123
vn 0.2588 -0.0000 0.9659
vn 0.7071 -0.0000 0.7071
vn 0.9659 -0.0000 0.2588
vn 0.9659 -0.0000 -0.2588
vn 0.7071 -0.0000 -0.7071
vn 0.2588 -0.0000 -0.9659
vn -0.2588 -0.0000 -0.9659
vn -0.7071 -0.0000 -0.7071
vn -0.9659 -0.0000 -0.2588
vn -0.9659 -0.0000 0.2588
vn -0.0000 -1.0000 -0.0000
vn -0.7071 -0.0000 0.7071
vn -0.2588 -0.0000 0.9659
vn 0.2456 0.3150 -0.9168
vn 0.1972 0.6478 -0.7358
vn 0.6711 0.3150 -0.6711
vn 0.9168 0.3150 -0.2456
vn -0.2456 0.3150 0.9168
vn 0.2456 0.3150 0.9168
vn 0.9168 0.3150 0.2456
vn -0.6711 0.3150 0.6711
vn 0.6711 0.3150 0.6711
vn -0.9168 0.3150 0.2456
vn -0.9168 0.3150 -0.2456
vn -0.6711 0.3150 -0.6711
vn -0.2456 0.3150 -0.9168
vn -0.2145 0.5596 -0.8005
vn -0.5860 0.5596 -0.5860
vn -0.8005 0.5596 -0.2145
vn -0.8005 0.5596 0.2145
vn -0.5860 0.5596 0.5860
vn -0.2145 0.5596 0.8005
vn 0.2145 0.5596 0.8005
vn 0.5860 0.5596 0.5860
vn 0.8005 0.5596 0.2145
vn 0.8005 0.5596 -0.2145
vn 0.5860 0.5596 -0.5860
vn 0.2145 0.5596 -0.8005
vn -0.0000 1.0000 -0.0000
vn -0.5387 0.6478 -0.5387
vn 0.7358 0.6478 0.1972
vn -0.1972 0.6478 0.7358
vn -0.7358 0.6478 -0.1972
vn 0.7358 0.6478 -0.1972
vn 0.1972 0.6478 0.7358
vn -0.7358 0.6478 0.1972
vn 0.5387 0.6478 -0.5387
vn -0.1972 0.6478 -0.7358
vn 0.5387 0.6478 0.5387
vn -0.5387 0.6478 0.5387
vn -0.4809 -0.1105 -0.8698
vn -0.4813 -0.0964 0.8712
vn -0.3570 -0.1763 -0.9173
vn -0.4555 -0.1251 0.8814
vn -0.4794 -0.1365 0.8669
vn 0.2534 0.7104 0.6566
vn 0.2534 0.7104 -0.6566
vn -0.0000 -0.0000 1.0000
vn -0.4794 -0.1365 -0.8669
vn 0.4794 -0.1365 0.8669
vn 0.1119 0.3471 0.9311
vn 0.4553 -0.1266 0.8813
vn -0.1833 0.8297 -0.5273
vn 0.4809 -0.1105 -0.8698
vn 0.9974 -0.0189 0.0699
vn 0.4794 -0.1365 -0.8669
vn -0.2534 0.7104 0.6566
vn -0.0000 -0.5197 0.8543
vn -0.7523 0.6589 -0.0000
vn -0.0000 0.4972 -0.8676
vn -0.2353 0.9719 -0.0000
vn -0.0000 -1.0000 -0.0002
vn 0.7523 0.6589 -0.0000
vn -0.6547 -0.7559 -0.0000
vn 0.2353 0.9719 -0.0000
vn -0.0000 -0.1099 -0.9939
vn 0.0551 0.9884 0.1419
vn 0.1864 0.8530 -0.4874
vn -0.0000 -0.1428 -0.9898
vn -0.0000 -0.1099 0.9939
vn -0.1067 0.9556 -0.2748
vn -0.1370 0.9242 0.3564
vn -0.0946 0.9566 -0.2757
vn -0.1331 0.9148 0.3814
vn -0.3374 0.9413 -0.0000
vn -0.0000 -0.1556 0.9878
vn -0.0000 -0.1556 -0.9878
vn 0.9617 -0.2740 -0.0000
vn -0.1147 0.9475 0.2986
vn -0.1864 0.8530 -0.4874
vn 0.1067 0.9556 -0.2748
vn 0.1370 0.9242 0.3564
vn 0.0946 0.9566 -0.2757
vn 0.1331 0.9148 0.3814
vn 0.3374 0.9413 -0.0000
vn -0.9617 -0.2740 -0.0000
vn 0.4553 -0.1272 -0.8812
vn -0.4565 -0.1049 -0.8835
vn -0.4813 -0.0964 -0.8712
vn -0.4565 -0.1049 0.8835
vn -0.1119 0.3471 0.9311
vn -0.4809 -0.1105 0.8698
vn -0.4553 -0.1272 -0.8812
vn -0.3493 -0.1794 0.9197
vn -0.4553 -0.1266 0.8813
vn 0.1833 0.8297 0.5273
vn 0.1833 0.8297 -0.5273
vn 0.4565 -0.1049 0.8835
vn 0.4813 -0.0964 0.8712
vn 0.4809 -0.1105 0.8698
vn 0.3551 -0.1823 0.9169
vn 0.7748 0.6191 0.1277
vn 0.4549 -0.1329 0.8806
vn -0.2534 0.7104 -0.6566
vn 0.4813 -0.0964 -0.8712
vn 0.4565 -0.1049 -0.8835
vn 1.0000 -0.0085 -0.0017
vn 0.0250 -0.0056 0.9997
vn 0.0027 -0.0051 1.0000
vn -0.1833 0.8297 0.5273
vn -0.0027 -0.0051 1.0000
vn -0.0250 -0.0056 0.9997
vn 0.6547 -0.7559 -0.0000
vn 0.0869 0.9715 0.2207
vn 0.2723 0.6585 -0.7016
vn -0.1370 0.9242 -0.3564
vn -0.1067 0.9556 0.2748
vn -0.1331 0.9148 -0.3814
vn -0.0946 0.9566 0.2757
vn -0.0865 0.9710 0.2228
vn -0.2723 0.6585 -0.7016
vn 0.1370 0.9242 -0.3564
vn 0.1067 0.9556 0.2748
vn 0.1331 0.9148 -0.3814
vn 0.0946 0.9566 0.2757
vn 0.3570 -0.1763 -0.9173
vt 0.959520 0.530890
vt 0.840425 0.550739
vt 0.840425 0.530890
vt 0.959520 0.550739
vt 0.840425 0.570589
vt 0.959520 0.570589
vt 0.840425 0.590437
vt 0.959520 0.590437
vt 0.840425 0.610287
vt 0.959520 0.610287
vt 0.840425 0.630136
vt 0.959520 0.630138
vt 0.840425 0.649986
vt 0.959520 0.669835
vt 0.840425 0.669835
vt 0.959520 0.689684
vt 0.840425 0.689684
vt 0.840425 0.709534
vt 0.959520 0.709534
vt 0.840425 0.729383
vt 0.206160 0.863711
vt 0.173127 0.986987
vt 0.082884 0.896742
vt 0.959520 0.749231
vt 0.840425 0.749231
vt 0.959520 0.769081
vt 0.840425 0.769081
vt 0.840425 0.630137
vt 0.970491 0.488898
vt 0.939859 0.506584
vt 0.939858 0.506584
vt 0.999805 0.461382
vt 0.988177 0.458266
vt 0.988176 0.422895
vt 0.999805 0.419779
vt 0.970490 0.392263
vt 0.979003 0.383749
vt 0.942974 0.362948
vt 0.939859 0.374578
vt 0.901371 0.362948
vt 0.904487 0.374578
vt 0.865340 0.383749
vt 0.873855 0.392263
vt 0.856169 0.422895
vt 0.844539 0.419779
vt 0.844539 0.461382
vt 0.856169 0.458266
vt 0.873855 0.488898
vt 0.865340 0.497412
vt 0.901371 0.518214
vt 0.904487 0.506584
vt 0.942974 0.518214
vt 0.979004 0.497412
vt 0.970491 0.392263
vt 0.988176 0.458266
vt 0.904488 0.374578
vt 0.970490 0.488898
vt 0.939858 0.374578
vt 0.345079 0.632548
vt 0.336299 0.559770
vt 0.337911 0.557684
vt 0.263483 0.561971
vt 0.334580 0.280916
vt 0.337518 0.557348
vt 0.737030 0.245631
vt 0.473231 0.398623
vt 0.561225 0.295817
vt 0.473029 0.398449
vt 0.334257 0.277325
vt 0.615398 0.117689
vt 0.335706 0.559259
vt 0.301621 0.598748
vt 0.592946 0.266243
vt 0.732696 0.238394
vt 0.574267 0.284743
vt 0.621730 0.126771
vt 0.591861 0.265141
vt 0.573065 0.283510
vt 0.737683 0.243849
vt 0.574849 0.286862
vt 0.734605 0.240458
vt 0.494969 0.801500
vt 0.213615 0.870964
vt 0.213561 0.870615
vt 0.832842 0.025568
vt 0.616385 0.121649
vt 0.858130 0.007319
vt 0.301943 0.599052
vt 0.110854 0.814638
vt 0.261637 0.562180
vt 0.301136 0.599310
vt 0.715416 0.219104
vt 0.594926 0.263207
vt 0.640704 0.144468
vt 0.083818 0.848214
vt 0.082495 0.843771
vt 0.334257 0.277325
vt 0.330431 0.277288
vt 0.129074 0.076762
vt 0.796544 0.065161
vt 0.638740 0.142483
vt 0.345139 0.634453
vt 0.088393 0.848953
vt 0.113622 0.817058
vt 0.001338 0.042116
vt 0.343000 0.001022
vt 0.375385 0.042116
vt 0.102958 0.475596
vt 0.055808 0.448868
vt 0.000195 0.317211
vt 0.301503 0.599654
vt 0.839070 0.031956
vt 0.798448 0.067111
vt 0.835848 0.031003
vt 0.793572 0.069960
vt 0.619710 0.124810
vt 0.570940 0.282918
vt 0.019772 0.753202
vt 0.648120 0.911910
vt 0.519351 0.849904
vt 0.833700 0.028782
vt 0.740136 0.244957
vt 0.608708 0.528769
vt 0.863800 0.000195
vt 0.611346 0.531620
vt 0.717348 0.221117
vt 0.563971 0.293711
vt 0.826523 0.758997
vt 0.959520 0.649986
vt 0.959520 0.729382
vt 0.101955 0.863711
vt 0.134986 0.844639
vt 0.173128 0.844640
vt 0.225230 0.896743
vt 0.225231 0.934885
vt 0.206160 0.967917
vt 0.134986 0.986987
vt 0.101952 0.967916
vt 0.082884 0.934884
vt 0.337752 0.557471
vt 0.334003 0.277572
vt 0.001311 0.041773
vt 0.076947 0.066041
vt 0.121773 0.092606
vt 0.020118 0.753274
vt 0.878420 0.801500
vt 0.902754 0.847574
s 0
f 2/1/1 3/2/1 1/3/1
f 4/4/2 5/5/2 3/2/2
f 6/6/3 7/7/3 5/5/3
f 8/8/4 9/9/4 7/7/4
f 10/10/5 11/11/5 9/9/5
f 12/12/6 13/13/6 11/11/6
f 13/13/7 16/14/7 15/15/7
f 15/15/8 18/16/8 17/17/8
f 18/16/9 19/18/9 17/17/9
f 20/19/10 21/20/10 19/18/10
f 22/21/11 14/22/11 6/23/11
f 21/20/12 24/24/12 23/25/12
f 23/25/13 2/26/13 1/27/13
f 13/13/14 42/28/14 11/11/14
f 25/29/15 60/30/15 36/31/15
f 11/11/16 41/9/16 9/9/16
f 9/9/17 40/7/17 7/7/17
f 1/27/18 48/25/18 23/25/18
f 1/3/19 38/2/19 37/3/19
f 5/5/20 40/7/20 39/5/20
f 23/25/21 47/20/21 21/20/21
f 3/2/22 39/5/22 38/2/22
f 21/20/23 46/18/23 19/18/23
f 17/17/24 46/18/24 45/17/24
f 15/15/25 45/17/25 44/15/25
f 13/13/26 44/15/26 43/13/26
f 25/29/27 38/32/27 26/33/27
f 27/34/28 38/32/28 39/35/28
f 28/36/29 39/35/29 40/37/29
f 28/36/30 41/38/30 29/39/30
f 29/39/31 42/40/31 30/41/31
f 30/41/32 43/42/32 31/43/32
f 32/44/33 43/42/33 44/45/33
f 32/44/34 45/46/34 33/47/34
f 34/48/35 45/46/35 46/49/35
f 34/48/36 47/50/36 35/51/36
f 35/51/37 48/52/37 36/31/37
f 25/29/38 48/52/38 37/53/38
f 52/54/39 56/44/39 60/30/39
f 26/33/40 51/34/40 50/55/40
f 34/48/41 57/47/41 33/47/41
f 31/43/42 54/56/42 30/41/42
f 28/36/43 51/34/43 27/34/43
f 34/48/44 59/51/44 58/48/44
f 31/43/45 56/44/45 55/43/45
f 29/39/46 52/54/46 28/36/46
f 36/31/47 59/51/47 35/51/47
f 25/29/48 50/55/48 49/57/48
f 32/44/49 57/47/49 56/44/49
f 30/41/50 53/58/50 29/39/50
f 85/59/51 114/60/51 117/61/51
f 90/62/52 72/63/52 117/64/52
f 97/65/53 66/66/53 119/67/53
f 66/68/54 75/69/54 93/70/54
f 115/71/55 106/72/55 90/62/55
f 122/73/56 79/74/56 111/75/56
f 76/76/57 120/77/57 110/78/57
f 98/79/39 112/80/39 78/81/39
f 66/82/58 116/83/58 117/84/58
f 81/85/39 92/86/39 95/87/39
f 85/59/59 107/88/59 114/60/59
f 86/89/60 91/90/60 109/91/60
f 102/92/39 121/93/39 99/94/39
f 86/89/61 89/95/61 88/96/61
f 75/97/62 73/98/62 61/99/62
f 76/76/63 103/100/63 100/101/63
f 84/102/64 88/103/64 87/104/64
f 74/105/65 93/106/65 65/107/65
f 61/108/58 62/109/58 64/110/58
f 84/102/66 87/104/66 108/111/66
f 82/112/39 95/87/39 98/79/39
f 79/74/67 104/113/67 83/114/67
f 102/92/39 99/94/39 105/115/39
f 92/86/39 77/116/39 113/117/39
f 61/108/58 89/118/58 62/109/58
f 69/119/58 67/120/58 66/82/58
f 73/98/68 75/69/68 72/63/68
f 80/121/69 82/112/69 83/114/69
f 96/122/70 97/65/70 98/79/70
f 103/100/71 104/113/71 105/115/71
f 107/88/72 109/91/72 106/72/72
f 111/75/73 113/117/73 110/78/73
f 115/71/74 117/61/74 114/60/74
f 120/77/75 121/93/75 122/73/75
f 70/123/76 84/102/76 85/59/76
f 93/70/77 95/87/77 92/86/77
f 96/122/78 95/87/78 94/124/78
f 70/123/79 96/122/79 71/125/79
f 73/98/80 90/62/80 91/90/80
f 81/85/81 76/76/81 77/116/81
f 82/112/82 79/74/82 83/114/82
f 100/101/83 105/115/83 99/94/83
f 101/126/84 105/115/84 104/113/84
f 80/121/85 104/113/85 103/100/85
f 106/72/86 91/90/86 90/62/86
f 85/59/87 108/111/87 107/88/87
f 108/111/88 86/89/88 109/91/88
f 92/86/89 119/67/89 93/70/89
f 118/127/90 97/65/90 119/67/90
f 76/76/91 113/117/91 77/116/91
f 79/74/92 112/80/92 111/75/92
f 121/93/93 100/101/93 99/94/93
f 121/93/94 101/126/94 122/73/94
f 111/75/95 120/77/95 122/73/95
f 115/71/96 107/88/96 106/72/96
f 96/122/97 61/128/97 71/125/97
f 2/1/1 4/4/1 3/2/1
f 4/4/2 6/6/2 5/5/2
f 6/6/3 8/8/3 7/7/3
f 8/8/4 10/10/4 9/9/4
f 10/10/5 12/12/5 11/11/5
f 12/12/6 14/129/6 13/13/6
f 13/13/7 14/129/7 16/14/7
f 15/15/8 16/14/8 18/16/8
f 18/16/9 20/19/9 19/18/9
f 20/19/10 22/130/10 21/20/10
f 6/23/11 4/131/11 2/132/11
f 2/132/11 24/133/11 22/21/11
f 22/21/11 20/134/11 18/135/11
f 18/135/11 16/136/11 14/22/11
f 14/22/11 12/137/11 10/138/11
f 10/138/11 8/139/11 6/23/11
f 6/23/11 2/132/11 22/21/11
f 22/21/11 18/135/11 14/22/11
f 14/22/11 10/138/11 6/23/11
f 21/20/12 22/130/12 24/24/12
f 23/25/13 24/24/13 2/26/13
f 13/13/14 43/13/14 42/28/14
f 25/29/15 49/57/15 60/30/15
f 11/11/16 42/28/16 41/9/16
f 9/9/17 41/9/17 40/7/17
f 1/27/18 37/27/18 48/25/18
f 1/3/19 3/2/19 38/2/19
f 5/5/20 7/7/20 40/7/20
f 23/25/21 48/25/21 47/20/21
f 3/2/22 5/5/22 39/5/22
f 21/20/23 47/20/23 46/18/23
f 17/17/24 19/18/24 46/18/24
f 15/15/25 17/17/25 45/17/25
f 13/13/26 15/15/26 44/15/26
f 25/29/27 37/53/27 38/32/27
f 27/34/28 26/33/28 38/32/28
f 28/36/29 27/34/29 39/35/29
f 28/36/30 40/37/30 41/38/30
f 29/39/31 41/38/31 42/40/31
f 30/41/32 42/40/32 43/42/32
f 32/44/33 31/43/33 43/42/33
f 32/44/34 44/45/34 45/46/34
f 34/48/35 33/47/35 45/46/35
f 34/48/36 46/49/36 47/50/36
f 35/51/37 47/50/37 48/52/37
f 25/29/38 36/31/38 48/52/38
f 60/30/39 49/57/39 50/55/39
f 50/55/39 51/34/39 52/54/39
f 52/54/39 53/58/39 54/56/39
f 54/56/39 55/43/39 56/44/39
f 56/44/39 57/47/39 58/48/39
f 58/48/39 59/51/39 60/30/39
f 60/30/39 50/55/39 52/54/39
f 52/54/39 54/56/39 56/44/39
f 56/44/39 58/48/39 60/30/39
f 26/33/40 27/34/40 51/34/40
f 34/48/41 58/48/41 57/47/41
f 31/43/42 55/43/42 54/56/42
f 28/36/43 52/54/43 51/34/43
f 34/48/44 35/51/44 59/51/44
f 31/43/45 32/44/45 56/44/45
f 29/39/46 53/58/46 52/54/46
f 36/31/47 60/30/47 59/51/47
f 25/29/48 26/33/48 50/55/48
f 32/44/49 33/47/49 57/47/49
f 30/41/50 54/56/50 53/58/50
f 66/66/98 70/123/98 117/61/98
f 70/123/99 85/59/99 117/61/99
f 72/63/100 66/68/100 117/64/100
f 117/64/101 116/140/101 115/71/101
f 115/71/102 90/62/102 117/64/102
f 97/65/103 70/123/103 66/66/103
f 93/70/104 119/67/104 66/68/104
f 66/68/105 72/63/105 75/69/105
f 122/73/106 101/126/106 79/74/106
f 76/76/107 100/101/107 120/77/107
f 98/79/39 118/127/39 112/80/39
f 66/82/58 67/120/58 116/83/58
f 81/85/39 77/116/39 92/86/39
f 88/96/108 61/99/108 73/98/108
f 73/98/109 91/90/109 88/96/109
f 91/90/110 86/89/110 88/96/110
f 61/99/111 94/124/111 93/70/111
f 75/97/112 74/141/112 73/98/112
f 61/99/113 93/70/113 75/97/113
f 76/76/114 80/121/114 103/100/114
f 84/102/115 71/125/115 88/103/115
f 71/125/116 61/128/116 88/103/116
f 74/105/117 75/142/117 93/106/117
f 63/143/118 94/144/118 64/110/118
f 94/144/119 61/108/119 64/110/119
f 98/79/39 78/81/39 82/112/39
f 82/112/39 81/85/39 95/87/39
f 79/74/120 101/126/120 104/113/120
f 113/117/39 112/80/39 118/127/39
f 118/127/39 92/86/39 113/117/39
f 61/108/58 88/145/58 89/118/58
f 66/82/121 119/146/121 69/119/121
f 119/146/122 68/147/122 69/119/122
f 80/121/69 81/85/69 82/112/69
f 86/89/123 87/104/123 88/103/123
f 107/88/72 108/111/72 109/91/72
f 111/75/73 112/80/73 113/117/73
f 70/123/76 71/125/76 84/102/76
f 93/70/124 94/124/124 95/87/124
f 96/122/125 98/79/125 95/87/125
f 70/123/79 97/65/79 96/122/79
f 73/98/80 72/63/80 90/62/80
f 81/85/126 80/121/126 76/76/126
f 82/112/127 78/81/127 79/74/127
f 100/101/128 103/100/128 105/115/128
f 101/126/129 102/92/129 105/115/129
f 80/121/85 83/114/85 104/113/85
f 106/72/86 109/91/86 91/90/86
f 85/59/87 84/102/87 108/111/87
f 108/111/88 87/104/88 86/89/88
f 92/86/130 118/127/130 119/67/130
f 118/127/131 98/79/131 97/65/131
f 76/76/132 110/78/132 113/117/132
f 79/74/133 78/81/133 112/80/133
f 121/93/134 120/77/134 100/101/134
f 121/93/135 102/92/135 101/126/135
f 111/75/95 110/78/95 120/77/95
f 115/71/96 114/60/96 107/88/96
f 96/122/136 94/124/136 61/128/136
