# Blender 4.4.3
# www.blender.org
mtllib Ship Base.mtl
o Cylinder
v 0.000000 19.921530 3.584741
v 0.000000 17.921530 3.584740
v 1.792370 19.921530 3.104477
v 1.792370 17.921530 3.104476
v 3.104476 19.921530 1.792370
v 3.104476 17.921530 1.792370
v 3.584740 19.921530 0.000000
v 3.584740 17.921530 0.000000
v 3.104476 19.921530 -1.792370
v 3.104476 17.921530 -1.792370
v 1.792370 19.921530 -3.104476
v 1.792370 17.921530 -3.104477
v 0.000000 19.921530 -3.584740
v 0.000000 17.921530 -3.584741
v -1.792370 19.921530 -3.104476
v -1.792370 17.921530 -3.104477
v -3.104476 19.921530 -1.792370
v -3.104476 17.921530 -1.792370
v -3.584740 19.921530 0.000000
v -3.584740 17.921530 0.000000
v -3.104476 19.921530 1.792370
v -3.104476 17.921530 1.792370
v -1.792370 19.921530 3.104477
v -1.792370 17.921530 3.104476
v 0.000000 20.240555 2.751872
v 1.375936 20.240555 2.383191
v 2.383191 20.240555 1.375936
v 2.751871 20.240555 0.000000
v 2.383191 20.240555 -1.375936
v 1.375936 20.240555 -2.383191
v 0.000000 20.240555 -2.751871
v -1.375936 20.240555 -2.383191
v -2.383191 20.240555 -1.375936
v -2.751871 20.240555 0.000000
v -2.383191 20.240555 1.375936
v -1.375936 20.240555 2.383191
v 0.000000 20.934214 3.236780
v 1.618390 20.934214 2.803134
v 2.803134 20.934214 1.618390
v 3.236780 20.934214 0.000000
v 2.803134 20.934214 -1.618390
v 1.618390 20.934214 -2.803134
v 0.000000 20.934214 -3.236780
v -1.618390 20.934214 -2.803134
v -2.803134 20.934214 -1.618390
v -3.236780 20.934214 0.000000
v -2.803134 20.934214 1.618390
v -1.618390 20.934214 2.803134
v -0.000000 19.057375 1.710227
v 0.855113 19.057375 1.481100
v 1.481100 19.057375 0.855114
v 1.710227 19.057375 0.000000
v 1.481100 19.057375 -0.855113
v 0.855113 19.057375 -1.481099
v -0.000000 19.057375 -1.710226
v -0.855113 19.057375 -1.481099
v -1.481100 19.057375 -0.855113
v -1.710227 19.057375 0.000000
v -1.481100 19.057375 0.855114
v -0.855113 19.057375 1.481100
v 6.325613 2.375297 0.000000
v 8.962366 2.375297 0.000000
v 17.251598 19.084969 0.000000
v 14.474706 6.613148 0.000000
v 0.000000 20.056938 8.049711
v -6.325613 2.375297 0.000000
v -8.962366 2.375297 0.000000
v -17.251598 19.084969 0.000000
v -14.474706 6.613148 0.000000
v -0.089021 2.375297 -3.222451
v 0.089021 2.375297 -3.222451
v -0.089015 2.375297 3.222454
v 0.089015 2.375297 3.222454
v 0.000000 2.471830 3.294551
v 0.000000 2.474280 3.282669
v 0.000000 19.028635 5.032429
v 0.000000 19.084969 5.228329
v 0.000000 19.084969 -5.228329
v 0.000000 19.028635 -5.032429
v 12.802525 19.014385 0.075302
v 12.864347 19.084969 0.234562
v 12.864347 19.084969 -0.234563
v 12.802525 19.014385 -0.075303
v 0.087703 -11.461735 -1.691820
v -0.087703 -11.461735 -1.691820
v 3.057179 -11.461735 0.049844
v 3.057179 -11.461735 -0.049844
v 3.169706 -11.364273 0.000000
v 3.186063 -11.369545 0.000000
v -0.087699 -11.461735 1.691823
v 0.087699 -11.461735 1.691823
v 0.000000 19.084969 5.561852
v 0.144903 19.055470 5.711133
v 14.717906 19.035753 0.063100
v 14.327784 19.084969 0.000000
v 0.093336 18.985853 -5.618651
v -0.093336 18.985853 -5.618651
v 0.000000 19.084969 -5.561852
v 0.000000 18.129875 3.512654
v 0.000000 18.185650 3.706132
v 0.000000 18.185650 -3.706132
v 0.000000 18.129875 -3.512654
v 10.542334 18.204195 0.071123
v 10.542334 18.204195 -0.071123
v 10.235391 18.129875 0.000000
v -0.087701 -21.886364 0.049844
v -0.087706 -21.886349 -0.049844
v 0.087706 -21.886349 -0.049844
v 0.087701 -21.886364 0.049844
v -12.802525 19.014385 0.075303
v -12.802525 19.014385 -0.075302
v -12.864347 19.084969 -0.234562
v -12.864347 19.084969 0.234563
v -3.057179 -11.461735 -0.049844
v -3.057179 -11.461735 0.049844
v -3.186063 -11.369545 0.000000
v -3.169706 -11.364273 0.000000
v -14.327784 19.084969 0.000000
v -14.717906 19.035753 0.063100
v -10.542334 18.204195 0.071123
v -10.235391 18.129875 -0.000000
v -10.542334 18.204195 -0.071123
vn 0.2588 -0.0000 0.9659
vn 0.7071 -0.0000 0.7071
vn 0.9659 -0.0000 0.2588
vn 0.9659 -0.0000 -0.2588
vn 0.7071 -0.0000 -0.7071
vn 0.2588 -0.0000 -0.9659
vn -0.2588 -0.0000 -0.9659
vn -0.7071 -0.0000 -0.7071
vn -0.9659 -0.0000 -0.2588
vn -0.9659 -0.0000 0.2588
vn -0.0000 -1.0000 -0.0000
vn -0.7071 -0.0000 0.7071
vn -0.2588 -0.0000 0.9659
vn 0.2456 0.3150 -0.9168
vn 0.1972 0.6478 -0.7358
vn 0.6711 0.3150 -0.6711
vn 0.9168 0.3150 -0.2456
vn -0.2456 0.3150 0.9168
vn 0.2456 0.3150 0.9168
vn 0.9168 0.3150 0.2456
vn -0.6711 0.3150 0.6711
vn 0.6711 0.3150 0.6711
vn -0.9168 0.3150 0.2456
vn -0.9168 0.3150 -0.2456
vn -0.6711 0.3150 -0.6711
vn -0.2456 0.3150 -0.9168
vn -0.2145 0.5596 -0.8005
vn -0.5860 0.5596 -0.5860
vn -0.8005 0.5596 -0.2145
vn -0.8005 0.5596 0.2145
vn -0.5860 0.5596 0.5860
vn -0.2145 0.5596 0.8005
vn 0.2145 0.5596 0.8005
vn 0.5860 0.5596 0.5860
vn 0.8005 0.5596 0.2145
vn 0.8005 0.5596 -0.2145
vn 0.5860 0.5596 -0.5860
vn 0.2145 0.5596 -0.8005
vn -0.0000 1.0000 -0.0000
vn -0.5387 0.6478 -0.5387
vn 0.7358 0.6478 0.1972
vn -0.1972 0.6478 0.7358
vn -0.7358 0.6478 -0.1972
vn 0.7358 0.6478 -0.1972
vn 0.1972 0.6478 0.7358
vn -0.7358 0.6478 0.1972
vn 0.5387 0.6478 -0.5387
vn -0.1972 0.6478 -0.7358
vn 0.5387 0.6478 0.5387
vn -0.5387 0.6478 0.5387
vn -0.4649 -0.1021 -0.8795
vn -0.4649 -0.1021 0.8795
vn -0.3877 -0.1615 -0.9075
vn -0.3826 -0.1630 0.9094
vn -0.4794 -0.1365 0.8669
vn 0.2183 0.7753 0.5926
vn 0.2183 0.7753 -0.5926
vn -0.0000 -0.0000 1.0000
vn -0.4794 -0.1365 -0.8669
vn 0.4794 -0.1365 0.8669
vn 0.4649 -0.1021 0.8795
vn 0.3867 -0.1672 0.9069
vn -0.2183 0.7753 -0.5926
vn 0.4649 -0.1021 -0.8795
vn 0.9974 -0.0188 0.0695
vn 0.0074 -0.0048 1.0000
vn 0.4794 -0.1365 -0.8669
vn -0.2183 0.7753 0.5926
vn -0.0074 -0.0048 1.0000
vn -0.0629 -0.5593 0.8265
vn -0.7522 0.6589 -0.0000
vn 0.6115 -0.7785 -0.1415
vn -0.0000 0.4972 -0.8676
vn -0.2353 0.9719 -0.0000
vn -0.0000 -1.0000 -0.0002
vn 0.7522 0.6589 -0.0000
vn -0.6115 -0.7785 -0.1415
vn 0.2353 0.9719 -0.0000
vn -0.0000 -0.1099 -0.9939
vn 0.0716 0.9805 0.1830
vn 0.2382 0.7502 -0.6168
vn -0.0000 -0.1428 -0.9898
vn -0.0000 -0.1099 0.9939
vn -0.1217 0.9412 -0.3152
vn -0.1217 0.9412 0.3152
vn -0.1139 0.9375 -0.3288
vn -0.1139 0.9375 0.3288
vn -0.3374 0.9413 -0.0000
vn -0.0000 -0.1556 0.9878
vn -0.0000 -0.1556 -0.9878
vn 0.9617 -0.2740 -0.0000
vn -0.0955 0.9643 0.2471
vn -0.2382 0.7502 -0.6168
vn 0.1217 0.9412 -0.3152
vn 0.1217 0.9412 0.3152
vn 0.1139 0.9375 -0.3288
vn 0.1139 0.9375 0.3288
vn 0.3374 0.9413 -0.0000
vn -0.9617 -0.2740 -0.0000
vn 0.3877 -0.1615 -0.9075
vt 0.840425 0.530890
vt 0.959520 0.530890
vt 0.959520 0.550739
vt 0.840425 0.550739
vt 0.959520 0.570589
vt 0.840425 0.570589
vt 0.959520 0.590437
vt 0.840425 0.590437
vt 0.959520 0.610287
vt 0.840425 0.610287
vt 0.959520 0.630138
vt 0.840425 0.630136
vt 0.959520 0.649986
vt 0.840425 0.649986
vt 0.959520 0.669835
vt 0.840425 0.669835
vt 0.959520 0.689684
vt 0.840425 0.689684
vt 0.959520 0.709534
vt 0.840425 0.709534
vt 0.959520 0.729382
vt 0.840425 0.729383
vt 0.101955 0.863711
vt 0.134986 0.844639
vt 0.173128 0.844640
vt 0.206160 0.863711
vt 0.225230 0.896743
vt 0.225231 0.934885
vt 0.206160 0.967917
vt 0.173127 0.986987
vt 0.134986 0.986987
vt 0.101952 0.967916
vt 0.082884 0.934884
vt 0.082884 0.896742
vt 0.959520 0.749231
vt 0.840425 0.749231
vt 0.959520 0.769081
vt 0.840425 0.769081
vt 0.840425 0.630137
vt 0.939858 0.506584
vt 0.970491 0.488898
vt 0.970490 0.488898
vt 0.939859 0.506584
vt 0.988177 0.458266
vt 0.979004 0.497412
vt 0.999805 0.461382
vt 0.988176 0.422895
vt 0.999805 0.419779
vt 0.970490 0.392263
vt 0.979003 0.383749
vt 0.939859 0.374578
vt 0.942974 0.362948
vt 0.904487 0.374578
vt 0.901371 0.362948
vt 0.873855 0.392263
vt 0.865340 0.383749
vt 0.856169 0.422895
vt 0.844539 0.419779
vt 0.856169 0.458266
vt 0.844539 0.461382
vt 0.873855 0.488898
vt 0.865340 0.497412
vt 0.904487 0.506584
vt 0.901371 0.518214
vt 0.942974 0.518214
vt 0.988176 0.458266
vt 0.970491 0.392263
vt 0.939858 0.374578
vt 0.904488 0.374578
vt 0.608708 0.528769
vt 0.345079 0.632548
vt 0.336299 0.559770
vt 0.337911 0.557684
vt 0.473231 0.398623
vt 0.473029 0.398449
vt 0.337518 0.557348
vt 0.337752 0.557471
vt 0.335706 0.559259
vt 0.263483 0.561971
vt 0.334580 0.280916
vt 0.737030 0.245631
vt 0.561225 0.295817
vt 0.334257 0.277325
vt 0.615398 0.117689
vt 0.301621 0.598748
vt 0.574267 0.284743
vt 0.592946 0.266243
vt 0.717348 0.221117
vt 0.732696 0.238394
vt 0.621730 0.126771
vt 0.638740 0.142483
vt 0.591861 0.265141
vt 0.573065 0.283510
vt 0.734605 0.240458
vt 0.737683 0.243849
vt 0.563971 0.293711
vt 0.574849 0.286862
vt 0.494969 0.801500
vt 0.519351 0.849904
vt 0.213615 0.870964
vt 0.213561 0.870615
vt 0.832842 0.025568
vt 0.619710 0.124810
vt 0.616385 0.121649
vt 0.858130 0.007319
vt 0.301943 0.599052
vt 0.110854 0.814638
vt 0.261637 0.562180
vt 0.301136 0.599310
vt 0.715416 0.219104
vt 0.594926 0.263207
vt 0.640704 0.144468
vt 0.129074 0.076762
vt 0.330431 0.277288
vt 0.083818 0.848214
vt 0.082495 0.843771
vt 0.863800 0.000195
vt 0.334257 0.277325
vt 0.334003 0.277572
vt 0.833700 0.028782
vt 0.796544 0.065161
vt 0.611346 0.531620
vt 0.826523 0.758997
vt 0.088393 0.848953
vt 0.113622 0.817058
vt 0.345139 0.634453
vt 0.001338 0.042116
vt 0.001311 0.041773
vt 0.343000 0.001022
vt 0.375385 0.042116
vt 0.121773 0.092606
vt 0.102958 0.475596
vt 0.055808 0.448868
vt 0.000195 0.317211
vt 0.076947 0.066041
vt 0.301503 0.599654
vt 0.839070 0.031956
vt 0.835848 0.031003
vt 0.798448 0.067111
vt 0.793572 0.069960
vt 0.570940 0.282918
vt 0.020118 0.753274
vt 0.019772 0.753202
vt 0.878420 0.801500
vt 0.902754 0.847574
vt 0.648120 0.911910
vt 0.740136 0.244957
s 0
f 1/1/1 2/2/1 4/3/1 3/4/1
f 3/4/2 4/3/2 6/5/2 5/6/2
f 5/6/3 6/5/3 8/7/3 7/8/3
f 7/8/4 8/7/4 10/9/4 9/10/4
f 9/10/5 10/9/5 12/11/5 11/12/5
f 11/12/6 12/11/6 14/13/6 13/14/6
f 13/14/7 14/13/7 16/15/7 15/16/7
f 15/16/8 16/15/8 18/17/8 17/18/8
f 17/18/9 18/17/9 20/19/9 19/20/9
f 19/20/10 20/19/10 22/21/10 21/22/10
f 4/23/11 2/24/11 24/25/11 22/26/11 20/27/11 18/28/11 16/29/11 14/30/11 12/31/11 10/32/11 8/33/11 6/34/11
f 21/22/12 22/21/12 24/35/12 23/36/12
f 23/36/13 24/35/13 2/37/13 1/38/13
f 11/12/14 13/14/14 43/14/14 42/39/14
f 36/40/15 25/41/15 49/42/15 60/43/15
f 9/10/16 11/12/16 42/39/16 41/10/16
f 7/8/17 9/10/17 41/10/17 40/8/17
f 23/36/18 1/38/18 37/38/18 48/36/18
f 1/1/19 3/4/19 38/4/19 37/1/19
f 5/6/20 7/8/20 40/8/20 39/6/20
f 21/22/21 23/36/21 48/36/21 47/22/21
f 3/4/22 5/6/22 39/6/22 38/4/22
f 19/20/23 21/22/23 47/22/23 46/20/23
f 17/18/24 19/20/24 46/20/24 45/18/24
f 15/16/25 17/18/25 45/18/25 44/16/25
f 13/14/26 15/16/26 44/16/26 43/14/26
f 26/44/27 25/41/27 37/45/27 38/46/27
f 27/47/28 26/44/28 38/46/28 39/48/28
f 28/49/29 27/47/29 39/48/29 40/50/29
f 29/51/30 28/49/30 40/50/30 41/52/30
f 30/53/31 29/51/31 41/52/31 42/54/31
f 31/55/32 30/53/32 42/54/32 43/56/32
f 32/57/33 31/55/33 43/56/33 44/58/33
f 33/59/34 32/57/34 44/58/34 45/60/34
f 34/61/35 33/59/35 45/60/35 46/62/35
f 35/63/36 34/61/36 46/62/36 47/64/36
f 36/40/37 35/63/37 47/64/37 48/65/37
f 25/41/38 36/40/38 48/65/38 37/45/38
f 49/42/39 50/66/39 51/47/39 52/67/39 53/68/39 54/69/39 55/55/39 56/57/39 57/59/39 58/61/39 59/63/39 60/43/39
f 26/44/40 27/47/40 51/47/40 50/66/40
f 33/59/41 34/61/41 58/61/41 57/59/41
f 30/53/42 31/55/42 55/55/42 54/69/42
f 27/47/43 28/49/43 52/67/43 51/47/43
f 34/61/44 35/63/44 59/63/44 58/61/44
f 31/55/45 32/57/45 56/57/45 55/55/45
f 28/49/46 29/51/46 53/68/46 52/67/46
f 35/63/47 36/40/47 60/43/47 59/63/47
f 25/41/48 26/44/48 50/66/48 49/42/48
f 32/57/49 33/59/49 57/59/49 56/57/49
f 29/51/50 30/53/50 54/69/50 53/68/50
f 70/70/51 85/71/51 114/72/51 117/73/51 66/74/51
f 66/75/52 117/76/52 116/77/52 115/78/52 90/79/52 72/80/52
f 97/81/53 70/70/53 66/74/53 119/82/53
f 119/82/54 66/75/54 72/80/54 75/83/54 93/84/54
f 115/78/55 106/85/55 90/79/55
f 111/86/56 122/87/56 101/88/56 79/89/56
f 76/90/57 100/91/57 120/92/57 110/93/57
f 78/94/39 98/95/39 118/96/39 112/97/39
f 66/98/58 67/99/58 116/100/58 117/101/58
f 81/102/39 77/103/39 92/104/39 95/105/39
f 85/71/59 107/106/59 114/72/59
f 86/107/60 91/108/60 109/109/60
f 102/110/39 121/111/39 99/112/39
f 61/113/61 73/114/61 91/108/61 86/107/61 89/115/61 88/116/61
f 94/117/62 93/84/62 75/118/62 74/119/62 73/114/62 61/113/62
f 76/90/63 80/120/63 103/121/63 100/91/63
f 71/122/64 61/123/64 88/124/64 87/125/64 84/126/64
f 74/127/65 75/128/65 93/129/65 65/130/65
f 94/131/66 61/132/66 62/133/66 64/134/66 63/135/66
f 84/126/67 87/125/67 108/136/67
f 78/94/39 82/137/39 81/102/39 95/105/39 98/95/39
f 83/138/68 79/89/68 101/88/68 104/139/68
f 102/110/39 99/112/39 105/140/39
f 113/141/39 112/97/39 118/96/39 92/104/39 77/103/39
f 61/132/58 88/142/58 89/143/58 62/133/58
f 119/144/69 68/145/69 69/146/69 67/99/69 66/98/69
f 72/80/70 73/114/70 74/119/70 75/83/70
f 80/120/71 81/102/71 82/137/71 83/138/71
f 86/107/72 87/125/72 88/124/72 89/115/72
f 96/147/73 97/81/73 98/95/73
f 103/121/74 104/139/74 105/140/74
f 106/85/75 107/106/75 108/136/75 109/109/75
f 110/93/76 111/86/76 112/97/76 113/141/76
f 114/72/77 115/78/77 116/77/77 117/73/77
f 120/92/78 121/111/78 122/87/78
f 85/71/79 70/70/79 71/122/79 84/126/79
f 93/84/80 94/117/80 95/105/80 92/104/80
f 94/117/81 96/147/81 98/95/81 95/105/81
f 70/70/82 97/81/82 96/147/82 71/122/82
f 91/108/83 73/114/83 72/80/83 90/79/83
f 77/103/84 81/102/84 80/120/84 76/90/84
f 82/137/85 78/94/85 79/89/85 83/138/85
f 100/91/86 103/121/86 105/140/86 99/112/86
f 104/139/87 101/88/87 102/110/87 105/140/87
f 103/121/88 80/120/88 83/138/88 104/139/88
f 90/79/89 106/85/89 109/109/89 91/108/89
f 107/106/90 85/71/90 84/126/90 108/136/90
f 108/136/91 87/125/91 86/107/91 109/109/91
f 92/104/92 118/96/92 119/82/92 93/84/92
f 118/96/93 98/95/93 97/81/93 119/82/93
f 76/90/94 110/93/94 113/141/94 77/103/94
f 111/86/95 79/89/95 78/94/95 112/97/95
f 99/112/96 121/111/96 120/92/96 100/91/96
f 121/111/97 102/110/97 101/88/97 122/87/97
f 122/87/98 111/86/98 110/93/98 120/92/98
f 106/85/99 115/78/99 114/72/99 107/106/99
f 96/147/100 94/117/100 61/123/100 71/122/100
