# Blender 4.0.2
# www.blender.org
mtllib spaceship 1 red.mtl
o red
v 0.312304 11.108531 1.474015
v 0.312304 11.108531 1.582348
v 0.437957 2.157705 0.157721
v 1.000000 2.157705 1.582348
v -0.312304 11.108531 1.474015
v -0.312304 11.108531 1.582348
v -0.437957 2.157705 0.157721
v -1.000000 2.157705 1.582348
v 1.000000 0.999213 1.582348
v 0.437957 0.999213 0.157721
v -0.437957 0.999213 0.157721
v -1.000000 0.999213 1.582348
v 0.261125 10.463788 -1.495958
v 0.170187 10.463788 -1.392106
v 0.904760 0.999213 -1.495958
v 0.264681 0.999213 -0.602302
v -0.261125 10.463788 -1.495958
v -0.170187 10.463788 -1.392106
v -0.904760 0.999213 -1.495958
v -0.264681 0.999213 -0.602302
v 0.567122 0.999213 -1.302690
v -0.567122 0.999213 -1.302690
v 0.241459 11.108531 -1.473498
v 0.170187 11.108531 -1.392106
v -0.170187 11.108531 -1.392106
v -0.241459 11.108531 -1.473498
v -1.842425 -0.458867 1.724650
v -1.842425 -0.836672 1.724650
v -1.842425 -1.468312 1.724650
v -1.842425 -1.846116 1.724650
v -1.842425 -2.477756 1.724650
v -1.842425 -2.855561 1.724650
v -1.842425 -3.487200 1.724650
v -1.842425 -3.865005 1.724650
v -1.842425 -4.496645 1.724650
v -1.842425 -4.874449 1.724650
v -1.842425 -5.506090 1.724650
v -1.842425 -5.883893 1.724650
v -1.842425 -5.380100 1.035563
v -1.842425 -5.002296 1.035563
v -1.842425 -4.370656 1.035563
v -1.842425 -3.992851 1.035563
v -1.842425 -3.361211 1.035563
v -1.842425 -2.983407 1.035563
v -1.842425 -2.351767 1.035563
v -1.842425 -1.973962 1.035563
v -1.842425 -1.342322 1.035563
v -1.842425 -0.964518 1.035563
v -1.842425 -0.332878 1.035563
v -1.842425 0.044926 1.035563
v -1.842425 0.044926 -1.020794
v -1.842425 -0.332878 -1.020794
v -1.842425 -0.964519 -1.020794
v -1.842425 -1.342323 -1.020794
v -1.842425 -1.973963 -1.020794
v -1.842425 -2.351767 -1.020794
v -1.842425 -2.983407 -1.020794
v -1.842425 -3.361211 -1.020794
v -1.842425 -3.992851 -1.020794
v -1.842425 -4.370656 -1.020794
v -1.842425 -5.002296 -1.020794
v -1.842425 -5.380100 -1.020794
v -1.842425 -5.883893 -1.709881
v -1.842425 -5.506090 -1.709881
v -1.842425 -4.874449 -1.709881
v -1.842425 -4.496645 -1.709881
v -1.842425 -3.865005 -1.709881
v -1.842425 -3.487200 -1.709881
v -1.842425 -2.855560 -1.709881
v -1.842425 -2.477756 -1.709881
v -1.842425 -1.846116 -1.709881
v -1.842425 -1.468312 -1.709881
v -1.842425 -0.836672 -1.709881
v -1.842425 -0.458867 -1.709881
v 1.842425 -0.839894 1.724650
v 1.842425 -0.462089 1.724650
v 1.842425 -1.849338 1.724650
v 1.842425 -1.471534 1.724650
v 1.842425 -2.858783 1.724650
v 1.842425 -2.480978 1.724650
v 1.842425 -3.868227 1.724650
v 1.842425 -3.490422 1.724650
v 1.842425 -4.877671 1.724650
v 1.842425 -4.499867 1.724650
v 1.842425 -5.887115 1.724650
v 1.842425 -5.509311 1.724650
v 1.842425 -5.005517 1.035563
v 1.842425 -5.383322 1.035563
v 1.842425 -3.996073 1.035563
v 1.842425 -4.373878 1.035563
v 1.842425 -2.986629 1.035563
v 1.842425 -3.364433 1.035563
v 1.842425 -1.977184 1.035563
v 1.842425 -2.354989 1.035563
v 1.842425 -0.967740 1.035563
v 1.842425 -1.345544 1.035563
v 1.842425 0.041704 1.035563
v 1.842425 -0.336100 1.035563
v 1.842425 -0.332878 -1.020794
v 1.842425 0.044926 -1.020794
v 1.842425 -1.342323 -1.020794
v 1.842425 -0.964519 -1.020794
v 1.842425 -2.351767 -1.020794
v 1.842425 -1.973963 -1.020794
v 1.842425 -3.361211 -1.020794
v 1.842425 -2.983407 -1.020794
v 1.842425 -4.370656 -1.020794
v 1.842425 -3.992851 -1.020794
v 1.842425 -5.380100 -1.020794
v 1.842425 -5.002296 -1.020794
v 1.842425 -5.506090 -1.709881
v 1.842425 -5.883893 -1.709881
v 1.842425 -4.496645 -1.709881
v 1.842425 -4.874449 -1.709881
v 1.842425 -3.487200 -1.709881
v 1.842425 -3.865004 -1.709881
v 1.842425 -2.477756 -1.709881
v 1.842425 -2.855560 -1.709881
v 1.842425 -1.468312 -1.709881
v 1.842425 -1.846116 -1.709881
v 1.842425 -0.458867 -1.709881
v 1.842425 -0.836671 -1.709881
vn -0.0000 0.0169 -0.9999
vn -0.0000 -0.0000 -1.0000
vn -0.9302 0.0332 -0.3655
vn -0.9964 0.0761 -0.0362
vn -0.9297 0.0320 -0.3668
vn -0.0000 -0.0000 1.0000
vn 0.9302 -0.0000 -0.3670
vn 0.9297 0.0320 -0.3668
vn 0.9302 0.0332 -0.3655
vn 0.6255 0.0316 0.7796
vn 0.9157 0.0422 0.3996
vn 0.7375 0.0037 0.6753
vn 0.9964 0.0761 -0.0362
vn -0.9157 0.0422 0.3996
vn -0.6255 0.0316 0.7796
vn -0.7375 0.0037 0.6753
vn -0.7523 -0.0000 0.6588
vn -0.4965 0.0338 0.8674
vn -0.0000 -1.0000 -0.0000
vn 0.4965 0.0338 0.8674
vn -0.0000 1.0000 -0.0000
vn 0.7523 -0.0000 0.6588
vn -0.0000 0.0348 -0.9994
vn -0.9302 -0.0000 -0.3670
vn -0.0000 0.0726 -0.9974
vn -0.0000 0.1455 -0.9894
vn 0.9172 0.0422 0.3961
vn -0.9172 0.0422 0.3961
vn -0.9990 0.0316 -0.0330
vn 0.9990 0.0316 -0.0330
vn -0.0000 0.0417 0.9991
vn -0.0000 0.0832 0.9965
vn 1.0000 -0.0000 -0.0000
vn -1.0000 -0.0000 -0.0000
vn -0.9971 0.0766 -0.0000
vn 0.9971 0.0766 -0.0000
vt 0.375000 0.750000
vt 0.125000 0.500000
vt 0.375000 0.500000
vt 0.625000 0.500000
vt 0.875000 0.500000
vt 0.625000 0.250000
vt 0.375000 0.250000
vt 0.625000 0.000000
vt 0.429067 0.250000
vt 0.429066 0.000000
vt 0.375000 0.000000
vt 0.429067 0.500000
vt 0.625000 0.750000
vt 0.429067 0.750000
vt 0.429067 1.000000
vt 0.429067 0.750000
vt 0.429067 1.000000
vt 0.875000 0.750000
vt 0.625000 1.000000
vt 0.125000 0.750000
vt 0.835735 0.707602
vt 0.664265 0.718744
vt 0.835735 0.720969
vt 0.835735 0.671888
vt 0.664265 0.685255
vt 0.835735 0.685255
vt 0.664264 0.613826
vt 0.835735 0.600459
vt 0.835735 0.613826
vt 0.664264 0.578112
vt 0.835735 0.564745
vt 0.835735 0.578112
vt 0.664265 0.718744
vt 0.664265 0.649540
vt 0.835735 0.636174
vt 0.835735 0.649541
vt 0.664265 0.685255
vt 0.835735 0.671888
vt 0.835735 0.685255
vt 0.664265 0.542398
vt 0.835735 0.529031
vt 0.835735 0.542398
vt 0.664265 0.528917
vt 0.835735 0.542284
vt 0.835735 0.522215
vt 0.664265 0.564631
vt 0.835735 0.577998
vt 0.835735 0.564631
vt 0.835735 0.578112
vt 0.664265 0.564745
vt 0.664265 0.671774
vt 0.835736 0.685141
vt 0.835736 0.671774
vt 0.664265 0.600345
vt 0.835735 0.613712
vt 0.835735 0.600345
vt 0.835735 0.529031
vt 0.664264 0.600459
vt 0.835735 0.718744
vt 0.664265 0.707602
vt 0.664265 0.707488
vt 0.835736 0.718635
vt 0.835736 0.707488
vt 0.664265 0.636060
vt 0.835736 0.649426
vt 0.835736 0.636060
vt 0.664265 0.578112
vt 0.664265 0.529031
vt 0.835735 0.522372
vt 0.664265 0.613826
vt 0.835735 0.649541
vt 0.664265 0.636174
vt 0.835735 0.636174
vt 0.664265 0.671888
vt 0.835735 0.671888
vt 0.375000 1.000000
vt 0.664264 0.600459
vt 0.664265 0.636174
vt 0.664265 0.671888
vt 0.664265 0.522372
vt 0.664265 0.542284
vt 0.664265 0.577998
vt 0.664265 0.685141
vt 0.664265 0.613712
vt 0.664265 0.522372
vt 0.664265 0.720969
vt 0.664265 0.720855
vt 0.664265 0.649426
vt 0.664264 0.600459
vt 0.664265 0.649540
s 1
usemtl Red
f 17/1/1 15/2/2 19/3/2
f 8/4/3 5/1/4 7/3/5
f 12/4/6 4/5/6 8/4/6
f 9/6/7 3/7/8 4/6/9
f 14/8/10 21/9/11 23/10/12
f 1/11/13 4/6/9 3/7/8
f 22/12/14 18/13/15 26/14/16
f 26/14/16 18/13/15 25/13/17
f 22/12/18 17/1/18 19/3/18
f 21/9/19 19/3/19 15/7/19
f 13/11/20 21/9/20 15/7/20
f 25/13/21 23/15/21 26/16/21
f 14/8/10 23/10/12 24/8/22
f 23/17/23 17/1/1 26/14/23
f 2/18/6 8/4/6 4/5/6
f 2/19/21 5/1/21 6/13/21
f 11/3/24 8/4/3 7/3/5
f 7/3/25 1/20/26 3/2/25
f 14/8/10 16/6/27 21/9/11
f 22/12/14 20/4/28 18/13/15
f 22/12/29 26/14/29 17/1/29
f 21/9/19 22/12/19 19/3/19
f 13/11/30 23/10/30 21/9/30
f 25/13/21 24/19/21 23/15/21
f 10/2/2 7/3/25 3/2/25
f 24/18/6 18/13/31 14/18/31
f 14/18/31 20/4/32 16/5/32
f 99/21/33 121/22/33 100/23/33
f 101/24/33 119/25/33 102/26/33
f 68/27/34 58/28/34 57/29/34
f 66/30/34 60/31/34 59/32/34
f 74/33/34 52/21/34 51/23/34
f 70/34/34 56/35/34 55/36/34
f 72/37/34 54/38/34 53/39/34
f 64/40/34 62/41/34 61/42/34
f 88/43/33 86/44/33 85/45/33
f 90/46/33 84/47/33 83/48/33
f 35/49/34 41/50/34 36/31/34
f 96/51/33 78/52/33 77/53/33
f 92/54/33 82/55/33 81/56/33
f 109/57/33 111/40/33 110/42/33
f 33/29/34 43/58/34 34/28/34
f 27/59/34 49/60/34 28/21/34
f 98/61/33 76/62/33 75/63/33
f 94/64/33 80/65/33 79/66/33
f 107/31/33 113/67/33 108/32/33
f 37/42/34 39/68/34 38/69/34
f 105/28/33 115/70/33 106/29/33
f 31/71/34 45/72/34 32/73/34
f 29/39/34 47/74/34 30/75/34
f 103/35/33 117/34/33 104/36/33
f 17/1/1 13/20/1 15/2/2
f 8/4/3 6/13/35 5/1/4
f 12/4/6 9/5/6 4/5/6
f 9/6/7 10/7/7 3/7/8
f 1/11/13 2/8/36 4/6/9
f 23/17/23 13/76/1 17/1/1
f 2/18/6 6/13/6 8/4/6
f 2/19/21 1/76/21 5/1/21
f 11/3/24 12/4/24 8/4/3
f 7/3/25 5/1/26 1/20/26
f 10/2/2 11/3/2 7/3/25
f 24/18/6 25/13/6 18/13/31
f 14/18/31 18/13/31 20/4/32
f 99/21/33 122/60/33 121/22/33
f 101/24/33 120/74/33 119/25/33
f 68/27/34 67/77/34 58/28/34
f 66/30/34 65/50/34 60/31/34
f 74/33/34 73/60/34 52/21/34
f 70/34/34 69/78/34 56/35/34
f 72/37/34 71/79/34 54/38/34
f 64/40/34 63/80/34 62/41/34
f 88/43/33 87/81/33 86/44/33
f 90/46/33 89/82/33 84/47/33
f 35/49/34 42/30/34 41/50/34
f 96/51/33 95/83/33 78/52/33
f 92/54/33 91/84/33 82/55/33
f 109/57/33 112/85/33 111/40/33
f 33/29/34 44/27/34 43/58/34
f 27/59/34 50/86/34 49/60/34
f 98/61/33 97/87/33 76/62/33
f 94/64/33 93/88/33 80/65/33
f 107/31/33 114/50/33 113/67/33
f 37/42/34 40/40/34 39/68/34
f 105/28/33 116/89/33 115/70/33
f 31/71/34 46/90/34 45/72/34
f 29/39/34 48/37/34 47/74/34
f 103/35/33 118/72/33 117/34/33
